<svg xmlns="http://www.w3.org/2000/svg" width="256" height="256" viewBox="0 0 100 100"><rect width="100" height="100" rx="50" fill="#7ed321"></rect><path d="M34.30 36.13L34.30 61.48Q34.30 62.63 33.80 63.33Q33.30 64.03 32.30 64.67L32.30 64.67Q31.05 65.48 29.00 66.15Q26.95 66.83 24.25 66.83L24.25 66.83Q18.25 66.83 14.72 63.75Q11.20 60.68 11.20 54.33L11.20 54.33Q11.20 51.03 12.15 48.65Q13.10 46.28 14.72 44.73Q16.35 43.17 18.55 42.42Q20.75 41.67 23.30 41.67L23.30 41.67Q24.65 41.67 25.85 41.95Q27.05 42.23 28.00 42.63L28.00 42.63L28.00 33.58Q28.40 33.43 29.17 33.30Q29.95 33.18 30.85 33.18L30.85 33.18Q32.65 33.18 33.47 33.83Q34.30 34.48 34.30 36.13L34.30 36.13ZM28.00 60.78L28.00 47.73Q27.25 47.28 26.25 46.98Q25.25 46.67 24.10 46.67L24.10 46.67Q21.30 46.67 19.45 48.48Q17.60 50.28 17.60 54.38L17.60 54.38Q17.60 58.23 19.37 60Q21.15 61.78 24.20 61.78L24.20 61.78Q25.50 61.78 26.42 61.48Q27.35 61.18 28.00 60.78L28.00 60.78ZM59.75 55.08L45.85 57.08Q46.55 59.63 48.45 60.78Q50.35 61.93 53.15 61.93L53.15 61.93Q55.25 61.93 57.02 61.30Q58.80 60.68 59.90 59.98L59.90 59.98Q60.60 60.38 61.05 61.08Q61.50 61.78 61.50 62.58L61.50 62.58Q61.50 63.58 60.83 64.35Q60.15 65.13 58.97 65.67Q57.80 66.23 56.20 66.53Q54.60 66.83 52.75 66.83L52.75 66.83Q49.80 66.83 47.38 66.03Q44.95 65.23 43.22 63.60Q41.50 61.98 40.52 59.58Q39.55 57.18 39.55 53.98L39.55 53.98Q39.55 50.88 40.50 48.58Q41.45 46.28 43.07 44.73Q44.70 43.17 46.85 42.42Q49 41.67 51.40 41.67L51.40 41.67Q53.85 41.67 55.90 42.45Q57.95 43.23 59.40 44.60Q60.85 45.98 61.67 47.90Q62.50 49.83 62.50 52.08L62.50 52.08Q62.50 53.48 61.77 54.18Q61.05 54.88 59.75 55.08L59.75 55.08ZM51.40 46.42L51.40 46.42Q48.95 46.42 47.30 48.05Q45.65 49.67 45.45 52.68L45.45 52.68L56.55 51.03Q56.35 49.17 55.10 47.80Q53.85 46.42 51.40 46.42ZM85.75 41.88L85.75 41.88Q87.05 41.88 87.92 42.48Q88.80 43.08 88.80 44.48L88.80 44.48Q88.80 45.13 88.42 46.58Q88.05 48.03 87.42 49.92Q86.80 51.83 86 54.03Q85.20 56.23 84.35 58.35Q83.50 60.48 82.65 62.38Q81.80 64.28 81.10 65.58L81.10 65.58Q80.60 65.98 79.60 66.23Q78.60 66.48 77.40 66.48L77.40 66.48Q75.95 66.48 74.92 66.10Q73.90 65.73 73.45 64.88L73.45 64.88Q73 64.03 72.35 62.53Q71.70 61.03 70.95 59.13Q70.20 57.23 69.40 55.10Q68.60 52.98 67.88 50.88Q67.15 48.78 66.53 46.83Q65.90 44.88 65.50 43.33L65.50 43.33Q66 42.73 66.92 42.30Q67.85 41.88 68.85 41.88L68.85 41.88Q70.15 41.88 70.97 42.48Q71.80 43.08 72.25 44.63L72.25 44.63L74.75 52.88Q75.05 53.88 75.42 55Q75.80 56.13 76.15 57.20Q76.50 58.28 76.83 59.25Q77.15 60.23 77.35 60.88L77.35 60.88L77.55 60.88Q79 56.48 80.40 51.80Q81.80 47.13 82.85 42.58L82.85 42.58Q83.45 42.23 84.22 42.05Q85 41.88 85.75 41.88Z" fill="#fff"></path></svg>